<svg width="4663" height="1548" viewBox="0 0 4663 1548" fill="none" xmlns="http://www.w3.org/2000/svg">
<path d="M2846.46 741.67C2805.06 700.243 2781.78 644.102 2781.69 585.541C2781.54 538.666 2796.15 492.934 2823.45 454.83C2850.76 416.725 2889.36 388.183 2933.79 373.251C2978.23 358.319 3026.23 357.754 3071.01 371.638C3115.78 385.521 3155.04 413.148 3183.23 450.599L3330.11 300.392C3293.24 225.386 3236.02 162.261 3164.98 118.227C3093.95 74.1932 3011.96 51.0259 2928.38 51.3713C2681.07 51.3713 2480.58 249.829 2480.58 497.137C2480.42 584.021 2505.76 669.041 2553.44 741.67H2242.62V476.089H2241.55C2235.03 274.208 2091.07 93.5609 1884.84 51.3713C1711.64 15.6119 1542.23 87.4545 1440.46 218.464L1554.17 394.902C1584.81 367.814 1622.31 349.682 1662.57 342.493C1702.83 335.305 1744.3 339.337 1782.42 354.147C1820.54 368.958 1853.85 393.976 1878.69 426.46C1903.54 458.944 1918.97 497.641 1923.28 538.309C1924.9 555.047 1924.9 571.903 1923.28 588.641V741.624H1279.89V1040.84H3449.51V741.67H2846.46Z" fill="#19B37F"/>
<path d="M654.702 41.6143C379.545 41.6143 155.69 265.978 155.69 541.737C155.69 817.495 379.545 1041.81 654.702 1041.81C929.86 1041.81 1153.71 817.449 1153.71 541.737V41.6143H654.702ZM849.875 531.698C849.875 670.48 738.85 765.175 604.279 731.775C520.686 711.05 458.465 639.254 458.65 542.986C458.65 452.037 528.596 348.136 652.945 345.823L849.69 344.898C849.936 344.898 850.171 344.996 850.345 345.169C850.518 345.343 850.616 345.578 850.616 345.823L849.875 531.698Z" fill="#19B37F"/>
<path d="M4484.86 488.941C4476.62 241.91 4279.88 44.0537 4037.57 44.0537C3790.12 44.0537 3589.53 234.554 3589.53 488.941C3589.53 743.327 3749.22 939.518 3996.63 939.518H4266.23C4144.57 1276.71 3813.57 1032.27 3813.57 1032.27L3634.31 1212.41C3713.79 1313.12 3860.39 1351.93 3953.23 1366.73C4015.59 1376.68 4079.39 1377 4140.96 1363.13C4462.24 1290.91 4485.88 939.518 4485.88 939.518L4484.86 488.941ZM4212.94 532.888V688.416H4030.3C3930.75 688.416 3867.47 613.983 3861.78 528.077C3855.11 428.108 3932.97 339.011 4032.94 336.328C4140.45 333.506 4212.94 420.938 4212.94 532.888Z" fill="#19B37F"/>
<path d="M244.601 1402.21C260.514 1402.21 272.098 1399.52 279.353 1394.14C286.607 1388.76 290.235 1381.15 290.235 1371.32C290.235 1365.47 288.947 1360.44 286.373 1356.23C284.033 1352.02 280.523 1348.27 275.843 1345C271.396 1341.49 265.897 1338.33 259.344 1335.52C252.792 1332.48 245.303 1329.55 236.879 1326.74C228.454 1323.7 220.264 1320.43 212.307 1316.92C204.585 1313.17 197.681 1308.61 191.597 1303.23C185.746 1297.84 180.949 1291.41 177.205 1283.92C173.694 1276.43 171.939 1267.42 171.939 1256.89C171.939 1234.89 179.545 1217.69 194.756 1205.29C209.967 1192.65 230.677 1186.33 256.887 1186.33C272.098 1186.33 285.554 1188.09 297.255 1191.6C309.19 1194.88 318.551 1198.5 325.337 1202.48L311.647 1238.29C303.69 1233.84 294.915 1230.45 285.32 1228.11C275.96 1225.77 266.248 1224.6 256.185 1224.6C244.25 1224.6 234.89 1227.05 228.103 1231.97C221.551 1236.88 218.274 1243.79 218.274 1252.68C218.274 1258.06 219.328 1262.74 221.434 1266.72C223.774 1270.46 226.933 1273.86 230.911 1276.9C235.124 1279.94 239.921 1282.75 245.303 1285.32C250.92 1287.9 257.004 1290.35 263.557 1292.69C275.023 1296.91 285.203 1301.24 294.096 1305.68C303.222 1309.9 310.828 1315.04 316.912 1321.13C323.231 1326.98 328.028 1334 331.304 1342.19C334.581 1350.15 336.219 1359.86 336.219 1371.32C336.219 1393.32 328.379 1410.41 312.7 1422.57C297.255 1434.51 274.555 1440.48 244.601 1440.48C234.539 1440.48 225.295 1439.77 216.87 1438.37C208.68 1437.2 201.308 1435.68 194.756 1433.81C188.437 1431.93 182.938 1430.06 178.258 1428.19C173.577 1426.08 169.833 1424.21 167.025 1422.57L180.013 1386.42C186.331 1389.93 194.873 1393.44 205.638 1396.95C216.402 1400.46 229.39 1402.21 244.601 1402.21ZM415.915 1435.21H373.441V1251.63H415.915V1435.21ZM420.478 1197.92C420.478 1205.87 417.904 1212.19 412.756 1216.87C407.608 1221.55 401.523 1223.89 394.503 1223.89C387.248 1223.89 381.047 1221.55 375.898 1216.87C370.75 1212.19 368.176 1205.87 368.176 1197.92C368.176 1189.73 370.75 1183.29 375.898 1178.61C381.047 1173.93 387.248 1171.59 394.503 1171.59C401.523 1171.59 407.608 1173.93 412.756 1178.61C417.904 1183.29 420.478 1189.73 420.478 1197.92ZM574.707 1338.68C574.707 1319.49 572.25 1305.68 567.336 1297.26C562.655 1288.6 553.763 1284.27 540.658 1284.27C535.977 1284.27 530.829 1284.62 525.213 1285.32C519.596 1286.03 515.384 1286.61 512.576 1287.08V1435.21H470.102V1257.59C478.292 1255.25 488.94 1253.03 502.045 1250.92C515.384 1248.82 529.425 1247.76 544.168 1247.76C556.805 1247.76 567.102 1249.4 575.058 1252.68C583.249 1255.95 590.035 1260.28 595.418 1265.67C597.992 1263.79 601.268 1261.8 605.246 1259.7C609.225 1257.59 613.671 1255.72 618.585 1254.08C623.5 1252.21 628.648 1250.69 634.03 1249.52C639.647 1248.35 645.263 1247.76 650.879 1247.76C665.154 1247.76 676.855 1249.87 685.982 1254.08C695.343 1258.06 702.597 1263.79 707.745 1271.28C713.128 1278.54 716.755 1287.43 718.627 1297.96C720.733 1308.26 721.786 1319.61 721.786 1332.01V1435.21H679.312V1338.68C679.312 1319.49 676.972 1305.68 672.292 1297.26C667.612 1288.6 658.602 1284.27 645.263 1284.27C638.477 1284.27 632.041 1285.44 625.957 1287.78C619.872 1289.89 615.309 1291.99 612.267 1294.1C614.139 1299.95 615.426 1306.15 616.128 1312.7C616.83 1319.26 617.181 1326.28 617.181 1333.76V1435.21H574.707V1338.68ZM895.626 1344.3C895.626 1325.34 891.297 1310.6 882.638 1300.07C874.213 1289.54 860.523 1284.27 841.568 1284.27C837.59 1284.27 833.378 1284.5 828.931 1284.97C824.719 1285.21 820.507 1285.91 816.294 1287.08V1392.03C820.039 1394.61 824.953 1397.07 831.037 1399.41C837.356 1401.51 844.025 1402.57 851.046 1402.57C866.491 1402.57 877.724 1397.3 884.744 1386.77C891.999 1376.24 895.626 1362.08 895.626 1344.3ZM939.153 1343.59C939.153 1357.63 937.281 1370.51 933.537 1382.21C930.026 1393.91 924.878 1403.97 918.091 1412.39C911.305 1420.82 902.763 1427.37 892.467 1432.05C882.404 1436.73 870.937 1439.07 858.066 1439.07C849.408 1439.07 841.451 1438.02 834.197 1435.91C826.942 1433.81 820.975 1431.47 816.294 1428.89V1500.15H773.82V1257.59C782.479 1255.25 793.127 1253.03 805.764 1250.92C818.4 1248.82 831.739 1247.76 845.78 1247.76C860.289 1247.76 873.277 1249.99 884.744 1254.43C896.211 1258.88 905.923 1265.31 913.879 1273.74C922.07 1281.93 928.271 1291.99 932.484 1303.93C936.93 1315.63 939.153 1328.85 939.153 1343.59ZM1046.81 1438.72C1034.18 1438.49 1023.65 1437.08 1015.22 1434.51C1007.03 1431.93 1000.48 1428.31 995.564 1423.63C990.649 1418.71 987.139 1412.75 985.033 1405.72C983.161 1398.47 982.225 1390.28 982.225 1381.15V1169.84L1024.7 1162.82V1373.08C1024.7 1378.23 1025.05 1382.56 1025.75 1386.07C1026.69 1389.58 1028.21 1392.62 1030.32 1395.19C1032.42 1397.53 1035.23 1399.41 1038.74 1400.81C1042.48 1401.98 1047.16 1402.92 1052.78 1403.62L1046.81 1438.72ZM1129.96 1435.21H1087.49V1251.63H1129.96V1435.21ZM1134.53 1197.92C1134.53 1205.87 1131.95 1212.19 1126.8 1216.87C1121.65 1221.55 1115.57 1223.89 1108.55 1223.89C1101.3 1223.89 1095.09 1221.55 1089.95 1216.87C1084.8 1212.19 1082.22 1205.87 1082.22 1197.92C1082.22 1189.73 1084.8 1183.29 1089.95 1178.61C1095.09 1173.93 1101.3 1171.59 1108.55 1171.59C1115.57 1171.59 1121.65 1173.93 1126.8 1178.61C1131.95 1183.29 1134.53 1189.73 1134.53 1197.92ZM1258.92 1162.82C1268.75 1162.82 1277.4 1163.75 1284.89 1165.62C1292.38 1167.26 1298 1168.78 1301.74 1170.19L1293.67 1205.29C1289.69 1203.42 1285.01 1201.9 1279.63 1200.73C1274.48 1199.56 1268.86 1198.97 1262.78 1198.97C1255.99 1198.97 1250.26 1200.02 1245.58 1202.13C1240.9 1204 1237.15 1206.69 1234.35 1210.2C1231.54 1213.71 1229.55 1218.04 1228.38 1223.19C1227.21 1228.11 1226.62 1233.49 1226.62 1239.34V1251.63H1293.32V1287.08H1226.62V1435.21H1184.15V1238.64C1184.15 1215 1190.35 1196.51 1202.75 1183.18C1215.16 1169.6 1233.88 1162.82 1258.92 1162.82ZM1480.41 1251.63C1461.46 1321.36 1439.46 1384.55 1414.42 1441.18C1409.74 1451.71 1404.94 1460.72 1400.03 1468.21C1395.11 1475.7 1389.61 1481.9 1383.53 1486.81C1377.44 1491.73 1370.66 1495.24 1363.17 1497.34C1355.68 1499.68 1347.02 1500.85 1337.19 1500.85C1330.64 1500.85 1324.09 1500.15 1317.54 1498.75C1311.22 1497.34 1306.42 1495.82 1303.14 1494.18L1310.87 1460.13C1319.29 1463.41 1327.6 1465.05 1335.79 1465.05C1346.79 1465.05 1355.33 1462.36 1361.41 1456.97C1367.73 1451.83 1373.23 1443.75 1377.91 1432.75C1364.57 1407.01 1351.7 1378.93 1339.3 1348.51C1327.13 1318.09 1316.25 1285.79 1306.65 1251.63H1351.94C1354.28 1261.45 1357.08 1272.1 1360.36 1283.57C1363.87 1295.04 1367.62 1306.74 1371.59 1318.67C1375.57 1330.37 1379.78 1342.07 1384.23 1353.77C1388.68 1365.47 1393.12 1376.36 1397.57 1386.42C1405.06 1365.59 1412.08 1343.48 1418.63 1320.07C1425.18 1296.44 1431.15 1273.62 1436.53 1251.63H1480.41ZM1555.37 1435.21H1512.9V1251.63H1555.37V1435.21ZM1559.94 1197.92C1559.94 1205.87 1557.36 1212.19 1552.21 1216.87C1547.07 1221.55 1540.98 1223.89 1533.96 1223.89C1526.71 1223.89 1520.51 1221.55 1515.36 1216.87C1510.21 1212.19 1507.63 1205.87 1507.63 1197.92C1507.63 1189.73 1510.21 1183.29 1515.36 1178.61C1520.51 1173.93 1526.71 1171.59 1533.96 1171.59C1540.98 1171.59 1547.07 1173.93 1552.21 1178.61C1557.36 1183.29 1559.94 1189.73 1559.94 1197.92ZM1609.56 1257.59C1617.75 1255.25 1628.4 1253.03 1641.5 1250.92C1654.61 1248.82 1669.12 1247.76 1685.03 1247.76C1700.01 1247.76 1712.53 1249.87 1722.59 1254.08C1732.65 1258.06 1740.61 1263.79 1746.46 1271.28C1752.54 1278.54 1756.76 1287.43 1759.1 1297.96C1761.67 1308.26 1762.96 1319.61 1762.96 1332.01V1435.21H1720.48V1338.68C1720.48 1328.85 1719.78 1320.54 1718.38 1313.76C1717.21 1306.74 1715.1 1301.12 1712.06 1296.91C1709.25 1292.46 1705.27 1289.3 1700.13 1287.43C1695.21 1285.32 1689.13 1284.27 1681.87 1284.27C1676.49 1284.27 1670.87 1284.62 1665.02 1285.32C1659.17 1286.03 1654.84 1286.61 1652.03 1287.08V1435.21H1609.56V1257.59ZM1848.24 1338.68C1848.24 1356.7 1852.11 1369.92 1859.83 1378.34C1867.78 1386.54 1877.96 1390.63 1890.37 1390.63C1897.15 1390.63 1903.47 1389.69 1909.32 1387.82C1915.41 1385.95 1920.32 1383.73 1924.07 1381.15V1286.03C1921.02 1285.32 1917.28 1284.74 1912.83 1284.27C1908.39 1283.57 1902.77 1283.22 1895.98 1283.22C1880.54 1283.22 1868.72 1288.37 1860.53 1298.66C1852.34 1308.73 1848.24 1322.06 1848.24 1338.68ZM1966.54 1416.61C1966.54 1445.86 1959.05 1467.27 1944.07 1480.84C1929.33 1494.42 1906.63 1501.2 1875.97 1501.2C1864.74 1501.2 1853.74 1500.27 1842.98 1498.4C1832.45 1496.52 1822.85 1494.07 1814.19 1491.02L1821.92 1454.87C1829.17 1457.91 1837.36 1460.37 1846.49 1462.24C1855.85 1464.11 1865.91 1465.05 1876.68 1465.05C1893.76 1465.05 1905.93 1461.54 1913.18 1454.52C1920.44 1447.5 1924.07 1437.08 1924.07 1423.28V1416.26C1919.85 1418.36 1914.24 1420.47 1907.22 1422.57C1900.43 1424.68 1892.59 1425.73 1883.7 1425.73C1872 1425.73 1861.23 1423.86 1851.4 1420.12C1841.81 1416.37 1833.5 1410.87 1826.48 1403.62C1819.69 1396.36 1814.31 1387.35 1810.33 1376.59C1806.59 1365.59 1804.72 1352.95 1804.72 1338.68C1804.72 1325.34 1806.71 1313.05 1810.68 1301.82C1814.9 1290.59 1820.86 1280.99 1828.59 1273.04C1836.54 1265.08 1846.14 1258.88 1857.37 1254.43C1868.6 1249.99 1881.36 1247.76 1895.63 1247.76C1909.44 1247.76 1922.54 1248.82 1934.95 1250.92C1947.35 1253.03 1957.88 1255.25 1966.54 1257.59V1416.61ZM2104.61 1191.95H2148.84V1435.21H2104.61V1191.95ZM2205 1257.59C2213.19 1255.25 2223.84 1253.03 2236.94 1250.92C2250.05 1248.82 2264.56 1247.76 2280.47 1247.76C2295.45 1247.76 2307.97 1249.87 2318.03 1254.08C2328.09 1258.06 2336.05 1263.79 2341.9 1271.28C2347.98 1278.54 2352.2 1287.43 2354.54 1297.96C2357.11 1308.26 2358.4 1319.61 2358.4 1332.01V1435.21H2315.92V1338.68C2315.92 1328.85 2315.22 1320.54 2313.82 1313.76C2312.65 1306.74 2310.54 1301.12 2307.5 1296.91C2304.69 1292.46 2300.71 1289.3 2295.56 1287.43C2290.65 1285.32 2284.57 1284.27 2277.31 1284.27C2271.93 1284.27 2266.31 1284.62 2260.46 1285.32C2254.61 1286.03 2250.28 1286.61 2247.47 1287.08V1435.21H2205V1257.59ZM2456.32 1404.67C2467.55 1404.67 2475.74 1403.38 2480.89 1400.81C2486.04 1398 2488.61 1393.32 2488.61 1386.77C2488.61 1380.69 2485.81 1375.65 2480.19 1371.68C2474.81 1367.7 2465.8 1363.37 2453.16 1358.69C2445.44 1355.88 2438.3 1352.95 2431.75 1349.91C2425.43 1346.64 2419.93 1342.89 2415.25 1338.68C2410.57 1334.47 2406.83 1329.44 2404.02 1323.59C2401.44 1317.5 2400.16 1310.13 2400.16 1301.47C2400.16 1284.62 2406.36 1271.4 2418.76 1261.8C2431.16 1251.98 2448.01 1247.06 2469.31 1247.06C2480.07 1247.06 2490.37 1248.11 2500.2 1250.22C2510.03 1252.09 2517.4 1253.97 2522.31 1255.84L2514.59 1290.24C2509.91 1288.13 2503.94 1286.26 2496.69 1284.62C2489.43 1282.75 2481.01 1281.81 2471.41 1281.81C2462.76 1281.81 2455.73 1283.33 2450.35 1286.38C2444.97 1289.18 2442.28 1293.63 2442.28 1299.72C2442.28 1302.76 2442.75 1305.45 2443.68 1307.79C2444.85 1310.13 2446.73 1312.35 2449.3 1314.46C2451.87 1316.33 2455.27 1318.32 2459.48 1320.43C2463.69 1322.3 2468.84 1324.29 2474.92 1326.39C2484.99 1330.14 2493.53 1333.88 2500.55 1337.63C2507.57 1341.14 2513.3 1345.23 2517.75 1349.91C2522.43 1354.36 2525.82 1359.51 2527.93 1365.36C2530.04 1371.21 2531.09 1378.23 2531.09 1386.42C2531.09 1403.97 2524.54 1417.31 2511.43 1426.44C2498.56 1435.33 2480.07 1439.77 2455.97 1439.77C2439.82 1439.77 2426.83 1438.37 2417.01 1435.56C2407.18 1432.99 2400.27 1430.88 2396.29 1429.24L2403.67 1393.79C2409.98 1396.36 2417.47 1398.82 2426.13 1401.16C2435.02 1403.5 2445.09 1404.67 2456.32 1404.67ZM2721.35 1429.59C2713.16 1431.7 2702.52 1433.81 2689.41 1435.91C2676.31 1438.25 2661.91 1439.42 2646.24 1439.42C2631.49 1439.42 2619.09 1437.32 2609.03 1433.1C2599.2 1428.89 2591.24 1423.04 2585.16 1415.55C2579.31 1408.07 2575.09 1399.17 2572.52 1388.88C2569.95 1378.34 2568.66 1366.88 2568.66 1354.48V1251.63H2611.13V1347.81C2611.13 1367.46 2613.94 1381.5 2619.56 1389.93C2625.41 1398.35 2635.47 1402.57 2649.75 1402.57C2654.89 1402.57 2660.28 1402.33 2665.89 1401.86C2671.74 1401.4 2676.07 1400.81 2678.88 1400.11V1251.63H2721.35V1429.59ZM2880.02 1289.89C2876.51 1288.72 2871.6 1287.55 2865.28 1286.38C2859.19 1284.97 2852.06 1284.27 2843.86 1284.27C2839.18 1284.27 2834.15 1284.74 2828.77 1285.67C2823.62 1286.61 2820 1287.43 2817.89 1288.13V1435.21H2775.42V1260.4C2783.61 1257.36 2793.79 1254.55 2805.95 1251.98C2818.36 1249.17 2832.05 1247.76 2847.02 1247.76C2849.83 1247.76 2853.11 1248 2856.85 1248.47C2860.6 1248.7 2864.34 1249.17 2868.09 1249.87C2871.83 1250.34 2875.46 1251.04 2878.97 1251.98C2882.48 1252.68 2885.29 1253.38 2887.39 1254.08L2880.02 1289.89ZM2981.58 1405.37C2994.68 1405.37 3004.63 1404.67 3011.42 1403.27V1356.23C3009.08 1355.53 3005.68 1354.83 3001.24 1354.12C2996.79 1353.42 2991.88 1353.07 2986.49 1353.07C2981.81 1353.07 2977.02 1353.42 2972.1 1354.12C2967.42 1354.83 2963.09 1356.11 2959.11 1357.99C2955.37 1359.86 2952.33 1362.55 2949.99 1366.06C2947.65 1369.34 2946.48 1373.55 2946.48 1378.7C2946.48 1388.76 2949.64 1395.78 2955.95 1399.76C2962.27 1403.5 2970.81 1405.37 2981.58 1405.37ZM2978.07 1247.06C2992.11 1247.06 3003.93 1248.82 3013.52 1252.33C3023.12 1255.84 3030.72 1260.75 3036.34 1267.07C3042.19 1273.39 3046.28 1281.11 3048.62 1290.24C3051.2 1299.13 3052.49 1308.96 3052.49 1319.72V1431C3045.93 1432.4 3035.99 1434.04 3022.65 1435.91C3009.54 1438.02 2994.68 1439.07 2978.07 1439.07C2967.07 1439.07 2957.01 1438.02 2947.88 1435.91C2938.75 1433.81 2930.91 1430.41 2924.36 1425.73C2918.04 1421.05 2913.01 1414.97 2909.27 1407.48C2905.76 1399.99 2904 1390.75 2904 1379.75C2904 1369.22 2905.99 1360.33 2909.97 1353.07C2914.18 1345.82 2919.8 1339.97 2926.82 1335.52C2933.84 1330.84 2941.91 1327.56 2951.04 1325.69C2960.4 1323.59 2970.11 1322.53 2980.18 1322.53C2984.86 1322.53 2989.77 1322.88 2994.92 1323.59C3000.07 1324.05 3005.57 1324.99 3011.42 1326.39V1319.37C3011.42 1314.46 3010.83 1309.78 3009.66 1305.33C3008.49 1300.89 3006.38 1297.02 3003.34 1293.75C3000.53 1290.24 2996.67 1287.55 2991.76 1285.67C2987.08 1283.8 2981.11 1282.87 2973.86 1282.87C2964.03 1282.87 2955.02 1283.57 2946.83 1284.97C2938.64 1286.38 2931.97 1288.01 2926.82 1289.89L2921.55 1255.49C2926.94 1253.61 2934.78 1251.74 2945.07 1249.87C2955.37 1248 2966.37 1247.06 2978.07 1247.06ZM3104.5 1257.59C3112.69 1255.25 3123.34 1253.03 3136.44 1250.92C3149.55 1248.82 3164.06 1247.76 3179.97 1247.76C3194.95 1247.76 3207.47 1249.87 3217.53 1254.08C3227.59 1258.06 3235.55 1263.79 3241.4 1271.28C3247.48 1278.54 3251.7 1287.43 3254.04 1297.96C3256.61 1308.26 3257.9 1319.61 3257.9 1332.01V1435.21H3215.42V1338.68C3215.42 1328.85 3214.72 1320.54 3213.32 1313.76C3212.15 1306.74 3210.04 1301.12 3207 1296.91C3204.19 1292.46 3200.21 1289.3 3195.06 1287.43C3190.15 1285.32 3184.07 1284.27 3176.81 1284.27C3171.43 1284.27 3165.81 1284.62 3159.96 1285.32C3154.11 1286.03 3149.78 1286.61 3146.97 1287.08V1435.21H3104.5V1257.59ZM3299.66 1343.59C3299.66 1330.02 3301.76 1317.38 3305.98 1305.68C3310.19 1293.75 3316.15 1283.45 3323.88 1274.79C3331.83 1266.13 3341.43 1259.35 3352.66 1254.43C3363.89 1249.52 3376.53 1247.06 3390.57 1247.06C3407.89 1247.06 3424.27 1250.22 3439.72 1256.54L3430.59 1291.29C3425.67 1289.18 3420.06 1287.43 3413.74 1286.03C3407.66 1284.62 3401.1 1283.92 3394.08 1283.92C3377.47 1283.92 3364.83 1289.18 3356.17 1299.72C3347.51 1310.01 3343.18 1324.64 3343.18 1343.59C3343.18 1361.85 3347.28 1376.36 3355.47 1387.12C3363.66 1397.65 3377.47 1402.92 3396.89 1402.92C3404.15 1402.92 3411.28 1402.21 3418.3 1400.81C3425.32 1399.41 3431.41 1397.65 3436.56 1395.55L3442.52 1430.65C3437.84 1432.99 3430.71 1435.09 3421.11 1436.97C3411.75 1438.84 3402.04 1439.77 3391.98 1439.77C3376.3 1439.77 3362.61 1437.43 3350.91 1432.75C3339.44 1427.84 3329.84 1421.17 3322.12 1412.75C3314.63 1404.09 3309.02 1393.91 3305.27 1382.21C3301.53 1370.27 3299.66 1357.4 3299.66 1343.59ZM3465.23 1344.3C3465.23 1328.15 3467.57 1313.99 3472.25 1301.82C3477.16 1289.65 3483.6 1279.59 3491.55 1271.63C3499.51 1263.44 3508.64 1257.36 3518.93 1253.38C3529.23 1249.17 3539.76 1247.06 3550.53 1247.06C3575.8 1247.06 3595.46 1254.9 3609.5 1270.58C3623.77 1286.26 3630.91 1309.66 3630.91 1340.79C3630.91 1343.13 3630.79 1345.82 3630.56 1348.86C3630.56 1351.67 3630.44 1354.24 3630.21 1356.58H3509.11C3510.28 1371.32 3515.42 1382.79 3524.55 1390.98C3533.91 1398.94 3547.37 1402.92 3564.92 1402.92C3575.22 1402.92 3584.58 1401.98 3593 1400.11C3601.66 1398.24 3608.45 1396.25 3613.36 1394.14L3618.98 1428.89C3616.64 1430.06 3613.36 1431.35 3609.15 1432.75C3605.17 1433.92 3600.49 1434.98 3595.11 1435.91C3589.96 1437.08 3584.34 1438.02 3578.26 1438.72C3572.17 1439.42 3565.97 1439.77 3559.65 1439.77C3543.51 1439.77 3529.47 1437.43 3517.53 1432.75C3505.6 1427.84 3495.77 1421.17 3488.04 1412.75C3480.32 1404.09 3474.59 1394.02 3470.84 1382.56C3467.1 1370.86 3465.23 1358.1 3465.23 1344.3ZM3588.44 1325.34C3588.44 1319.49 3587.62 1313.99 3585.98 1308.84C3584.34 1303.46 3581.89 1298.9 3578.61 1295.15C3575.57 1291.17 3571.71 1288.13 3567.03 1286.03C3562.58 1283.69 3557.2 1282.52 3550.88 1282.52C3544.33 1282.52 3538.59 1283.8 3533.68 1286.38C3528.76 1288.72 3524.55 1291.88 3521.04 1295.85C3517.76 1299.83 3515.19 1304.4 3513.32 1309.54C3511.45 1314.69 3510.16 1319.96 3509.46 1325.34H3588.44Z" fill="#F8B354"/>
</svg>
